<svg width="64" height="64" viewBox="0 0 64 64" xmlns="http://www.w3.org/2000/svg">
  <defs>
    <linearGradient id="bg" x1="0" y1="0" x2="1" y2="1">
      <stop offset="0%" stop-color="#171513" />
      <stop offset="100%" stop-color="#0f0e0d" />
    </linearGradient>
    <linearGradient id="accent" x1="0" y1="0" x2="1" y2="1">
      <stop offset="0%" stop-color="#f37a3f" />
      <stop offset="100%" stop-color="#ed622a" />
    </linearGradient>
  </defs>

  <!-- Background -->
  <rect x="2" y="2" width="60" height="60" rx="16" fill="url(#bg)" />

  <!-- Orange square — tight top-left corner -->
  <rect x="9" y="9" width="8" height="8" rx="2" fill="url(#accent)" />

  <!-- Bold S letter — shifted right to create clear gap from the square -->
  <g transform="translate(6, 0)">
    <path
      d="M47 18C42.8 14.5 37.6 12.6 32 12.6C22.2 12.6 15.2 17.6 15.2 25.2C15.2 31.4 20.1 35 28.4 37.2L35 39.1C39.6 40.3 41.5 41.6 41.5 43.8C41.5 46.9 38.4 48.9 33 48.9C27.9 48.9 23 47.1 19.2 43.8L13.8 49.8C18.8 54.2 25.6 56.6 32.6 56.6C43.5 56.6 50.4 51.1 50.4 42.9C50.4 36.4 46.6 33.1 38.4 30.8L31.6 28.8C26.6 27.5 24.2 26.3 24.2 23.5C24.2 20.5 27 18.8 31.6 18.8C35.5 18.8 39.2 20.2 42.1 22.7L47 18Z"
      fill="#fffdfb"
    />
  </g>
</svg>
