<?xml version="1.0" encoding="UTF-8" standalone="no"?><!DOCTYPE svg PUBLIC "-//W3C//DTD SVG 1.1//EN" "http://www.w3.org/Graphics/SVG/1.1/DTD/svg11.dtd"><svg width="100%" height="100%" viewBox="0 1650 3510 1100" version="1.1" xmlns="http://www.w3.org/2000/svg" xmlns:xlink="http://www.w3.org/1999/xlink" xml:space="preserve" xmlns:serif="http://www.serif.com/" style="fill-rule:evenodd;clip-rule:evenodd;stroke-linejoin:round;stroke-miterlimit:2;"><g transform="matrix(295.602436,0,0,295.602436,21.120067,2664.132013)"><path d="M0.193,-0.169l-0.005,-0.122l0.397,-0.409l0.114,0l-0.307,0.324l-0.056,0.062l-0.143,0.145Zm-0.088,0.169l0,-0.7l0.099,0l0,0.7l-0.099,-0Zm0.496,-0l-0.287,-0.334l0.067,-0.074l0.337,0.408l-0.117,-0Z" style="fill-rule:nonzero;"/></g><g transform="matrix(295.602436,0,0,295.602436,225.434499,2664.132013)"><path d="M-0.001,-0l0.317,-0.7l0.099,0l0.318,0.7l-0.105,-0l-0.283,-0.644l0.04,0l-0.283,0.644l-0.103,-0Zm0.135,-0.175l0.028,-0.081l0.394,0l0.029,0.081l-0.45,0Z" style="fill-rule:nonzero;"/></g><g transform="matrix(295.602436,0,0,295.602436,441.790209,2664.132013)"><path d="M0.105,-0l0,-0.7l0.082,0l0.314,0.529l-0.044,0l0.31,-0.529l0.082,0l0.001,0.7l-0.096,-0l-0.001,-0.549l0.022,0l-0.275,0.464l-0.046,0l-0.278,-0.464l0.025,0l0,0.549l-0.096,-0Z" style="fill-rule:nonzero;"/></g><g transform="matrix(295.602436,0,0,295.602436,724.136498,2664.132013)"><path d="M0.105,-0l0,-0.7l0.494,0l0,0.087l-0.395,0l0,0.527l0.409,-0l0,0.087l-0.508,-0Zm0.091,-0.313l0,-0.085l0.36,0l0,0.085l-0.36,0Z" style="fill-rule:nonzero;"/></g><g transform="matrix(295.602436,0,0,295.602436,922.098204,2664.132013)"><path d="M0.105,-0l0,-0.7l0.082,0l0.462,0.575l-0.042,0l0,-0.575l0.099,0l0,0.7l-0.082,-0l-0.462,-0.575l0.042,0l0,0.575l-0.099,-0Z" style="fill-rule:nonzero;"/></g><g transform="matrix(295.602436,0,0,295.602436,1162.061596,2664.132013)"><rect x="0.105" y="-0.7" width="0.099" height="0.7" style="fill-rule:nonzero;"/></g><g transform="matrix(295.602436,0,0,295.602436,1253.593787,2664.132013)"><path d="M0.418,0.008c-0.053,0 -0.102,-0.009 -0.147,-0.026c-0.045,-0.018 -0.084,-0.043 -0.117,-0.075c-0.033,-0.032 -0.059,-0.07 -0.078,-0.114c-0.019,-0.044 -0.028,-0.091 -0.028,-0.143c0,-0.052 0.009,-0.099 0.028,-0.143c0.019,-0.044 0.045,-0.081 0.078,-0.114c0.033,-0.032 0.073,-0.057 0.118,-0.075c0.045,-0.018 0.094,-0.027 0.147,-0.027c0.054,0 0.104,0.009 0.15,0.027c0.046,0.018 0.085,0.046 0.116,0.082l-0.064,0.063c-0.027,-0.028 -0.057,-0.049 -0.09,-0.063c-0.033,-0.014 -0.069,-0.02 -0.107,-0.02c-0.04,0 -0.076,0.007 -0.11,0.02c-0.033,0.013 -0.063,0.032 -0.087,0.056c-0.025,0.024 -0.044,0.053 -0.058,0.085c-0.014,0.033 -0.02,0.069 -0.02,0.107c0,0.039 0.007,0.075 0.02,0.107c0.014,0.033 0.033,0.061 0.058,0.085c0.025,0.024 0.054,0.043 0.087,0.056c0.033,0.013 0.07,0.02 0.11,0.02c0.038,0 0.074,-0.007 0.107,-0.02c0.033,-0.014 0.063,-0.035 0.09,-0.064l0.064,0.063c-0.032,0.036 -0.07,0.064 -0.116,0.082c-0.046,0.019 -0.096,0.028 -0.15,0.028Z" style="fill-rule:nonzero;"/></g><g transform="matrix(295.602436,0,0,295.602436,1459.280801,2664.132013)"><path d="M0.244,-0l0,-0.613l-0.24,0l-0,-0.087l0.579,0l0,0.087l-0.24,0l0,0.613l-0.099,-0Z" style="fill-rule:nonzero;"/></g><g transform="matrix(295.602436,0,0,295.602436,1630.389515,2664.132013)"><path d="M0.307,-0l-0.308,-0.7l0.108,0l0.283,0.646l-0.062,0l0.285,-0.646l0.1,0l-0.307,0.7l-0.099,-0Z" style="fill-rule:nonzero;"/></g><g transform="matrix(295.602436,0,0,295.602436,1836.491066,2664.132013)"><path d="M0.105,-0l0,-0.7l0.1,0l0,0.7l-0.1,-0Zm-0.025,-0.757l0.136,-0.13l0.122,0l-0.168,0.13l-0.09,0Z" style="fill-rule:nonzero;"/></g><g transform="matrix(295.602436,0,0,295.602436,1928.023257,2664.132013)"></g><g transform="matrix(295.602436,0,0,295.602436,2007.415927,2664.132013)"><path d="M0.309,0.008c-0.053,0 -0.104,-0.008 -0.153,-0.025c-0.049,-0.016 -0.087,-0.037 -0.115,-0.064l0.037,-0.078c0.027,0.023 0.061,0.043 0.102,0.058c0.041,0.015 0.084,0.023 0.129,0.023c0.041,0 0.074,-0.005 0.099,-0.014c0.025,-0.009 0.044,-0.022 0.056,-0.039c0.012,-0.016 0.018,-0.035 0.018,-0.055c0,-0.024 -0.008,-0.043 -0.023,-0.058c-0.016,-0.015 -0.036,-0.027 -0.061,-0.036c-0.025,-0.009 -0.053,-0.017 -0.083,-0.023c-0.03,-0.007 -0.06,-0.015 -0.09,-0.024c-0.03,-0.009 -0.058,-0.021 -0.083,-0.034c-0.025,-0.014 -0.045,-0.033 -0.061,-0.056c-0.015,-0.024 -0.023,-0.054 -0.023,-0.092c0,-0.036 0.01,-0.069 0.029,-0.1c0.019,-0.03 0.048,-0.055 0.088,-0.073c0.04,-0.018 0.09,-0.027 0.151,-0.027c0.041,0 0.081,0.005 0.121,0.016c0.04,0.011 0.075,0.026 0.104,0.046l-0.033,0.08c-0.03,-0.02 -0.062,-0.034 -0.095,-0.043c-0.033,-0.009 -0.066,-0.013 -0.097,-0.013c-0.039,0 -0.072,0.005 -0.097,0.015c-0.025,0.01 -0.044,0.023 -0.055,0.04c-0.012,0.017 -0.018,0.035 -0.018,0.056c0,0.025 0.008,0.044 0.023,0.059c0.016,0.015 0.036,0.026 0.061,0.035c0.025,0.009 0.052,0.016 0.083,0.023c0.03,0.007 0.06,0.015 0.091,0.024c0.03,0.009 0.058,0.02 0.083,0.034c0.025,0.014 0.045,0.033 0.061,0.056c0.015,0.023 0.023,0.053 0.023,0.09c0,0.035 -0.01,0.068 -0.029,0.099c-0.019,0.03 -0.049,0.055 -0.09,0.073c-0.04,0.018 -0.091,0.028 -0.153,0.028Zm-0.033,-0.765l-0.133,-0.13l0.087,0l0.132,0.109l-0.08,0l0.132,-0.109l0.087,0l-0.133,0.13l-0.092,0Z" style="fill-rule:nonzero;"/></g><g transform="matrix(295.602436,0,0,295.602436,2188.108305,2664.132013)"><path d="M0.244,-0l0,-0.613l-0.24,0l-0,-0.087l0.579,0l0,0.087l-0.24,0l0,0.613l-0.099,-0Z" style="fill-rule:nonzero;"/></g><g transform="matrix(295.602436,0,0,295.602436,2359.217019,2664.132013)"><path d="M0.274,-0l0,-0.268l0.023,0.061l-0.3,-0.494l0.107,0l0.253,0.417l-0.059,0l0.254,-0.417l0.099,0l-0.3,0.494l0.023,-0.061l0,0.268l-0.099,-0Z" style="fill-rule:nonzero;"/></g><g transform="matrix(295.602436,0,0,295.602436,2546.084589,2664.132013)"><path d="M0.105,-0l0,-0.7l0.314,0c0.08,0 0.142,0.016 0.186,0.048c0.043,0.032 0.065,0.077 0.065,0.133c0,0.038 -0.009,0.069 -0.026,0.096c-0.017,0.026 -0.04,0.046 -0.069,0.06c-0.029,0.014 -0.059,0.021 -0.093,0.021l0.018,-0.03c0.04,0 0.075,0.007 0.106,0.021c0.031,0.014 0.055,0.035 0.073,0.062c0.018,0.027 0.027,0.061 0.027,0.101c0,0.06 -0.022,0.106 -0.067,0.139c-0.045,0.033 -0.111,0.05 -0.2,0.05l-0.334,-0Zm0.099,-0.082l0.23,0c0.056,0 0.098,-0.009 0.127,-0.028c0.029,-0.018 0.044,-0.048 0.044,-0.088c0,-0.04 -0.015,-0.07 -0.044,-0.089c-0.029,-0.019 -0.072,-0.028 -0.127,-0.028l-0.239,0l0,-0.082l0.214,0c0.051,0 0.09,-0.009 0.118,-0.028c0.028,-0.019 0.042,-0.046 0.042,-0.084c0,-0.037 -0.014,-0.065 -0.042,-0.084c-0.028,-0.018 -0.067,-0.028 -0.118,-0.028l-0.205,0l0,0.537Z" style="fill-rule:nonzero;"/></g><g transform="matrix(295.602436,0,0,295.602436,2769.941241,2664.132013)"><path d="M0.105,-0l0,-0.7l0.082,0l0.462,0.575l-0.042,0l0,-0.575l0.099,0l0,0.7l-0.082,-0l-0.462,-0.575l0.042,0l0,0.575l-0.099,-0Z" style="fill-rule:nonzero;"/></g><g transform="matrix(295.602436,0,0,295.602436,3009.904633,2664.132013)"><path d="M0.105,-0l0,-0.7l0.494,0l0,0.087l-0.395,0l0,0.527l0.409,-0l0,0.087l-0.508,-0Zm0.091,-0.313l0,-0.085l0.36,0l0,0.085l-0.36,0Z" style="fill-rule:nonzero;"/></g><g transform="matrix(295.602436,0,0,295.602436,3207.866338,2664.132013)"><path d="M0.105,-0l0,-0.7l0.273,0c0.091,0 0.162,0.022 0.214,0.065c0.052,0.043 0.078,0.103 0.078,0.18c0,0.05 -0.012,0.094 -0.035,0.13c-0.023,0.036 -0.057,0.064 -0.1,0.084c-0.044,0.019 -0.096,0.029 -0.156,0.029l-0.218,0l0.044,-0.046l0,0.259l-0.099,-0Zm0.468,-0l-0.179,-0.254l0.108,0l0.18,0.254l-0.109,-0Zm-0.369,-0.249l-0.044,-0.049l0.215,0c0.064,0 0.112,-0.014 0.145,-0.042c0.033,-0.028 0.049,-0.066 0.049,-0.116c0,-0.05 -0.016,-0.089 -0.049,-0.117c-0.033,-0.027 -0.081,-0.041 -0.145,-0.041l-0.215,0l0.044,-0.049l0,0.414Z" style="fill-rule:nonzero;"/></g><g transform="matrix(295.602436,0,0,295.602436,3422.762991,2664.132013)"></g><g transform="matrix(295.602436,0,0,295.602436,3502.15566,2664.132013)"></g><g><path d="M2852.714,2026.675l117.918,0l-58.959,-161.564l-58.96,161.574l0,-0.01Zm186.959,-321.629l190.839,523.59l-186.187,0l-27.152,-74.807l-210.228,0l-27.927,74.797l-185.411,0l190.059,-523.573l256.007,0l0,-0.007Zm-472.806,523.59l-179.979,0l0,-523.59l179.979,0l0,523.59Zm-423.029,-523.59l179.979,0l0,523.59l-179.979,0l-181.528,-274.514l0,274.514l-179.979,0l0,-523.583l179.979,0l0,0.75l181.528,275.253l0,-276.009Zm-702.721,389.699c56.631,0 121.019,-29.922 121.019,-127.903c0,-97.236 -64.388,-127.154 -121.019,-127.154c-55.856,0 -120.247,29.918 -120.247,127.154c0,97.981 64.391,127.903 120.247,127.903m0,-401.662c145.07,0 297.887,75.545 297.887,273.759c0,198.951 -152.816,274.503 -297.887,274.503c-144.295,0 -297.125,-75.545 -297.125,-274.503c0,-198.206 152.831,-273.759 297.125,-273.759m-836.019,11.963l525.972,0l0,147.367l-172.995,0l0,376.223l-179.979,0l0,-376.223l-172.999,0l0,-147.367Zm-222.429,206.445c155.148,35.155 210.228,79.28 210.228,166.047c0,69.564 -63.608,163.807 -264.528,163.807c-157.486,0 -237.387,-83.029 -276.175,-148.844l186.956,-42.631c39.571,38.144 85.339,44.874 114.819,44.874c31.028,0 51.969,-11.218 51.969,-28.427c0,-23.924 -28.7,-29.167 -105.496,-43.38c-82.232,-15.701 -233.507,-57.59 -233.507,-178.766c0,-87.513 79.128,-151.088 247.467,-151.088c148.174,0 248.246,86.022 265.314,148.099l-173.778,34.406c-16.282,-26.173 -62.056,-35.9 -100.068,-35.9c-26.38,0 -52.748,5.978 -52.748,22.436c0,26.184 48.089,31.416 129.548,49.368" style="fill-rule:nonzero;"/><rect x="3230.511" y="1693.082" width="225.168" height="215.984" style="fill:#ed622a;"/></g></svg>