<?xml version="1.0" encoding="UTF-8" standalone="no"?>
<!DOCTYPE svg PUBLIC "-//W3C//DTD SVG 1.1//EN" "http://www.w3.org/Graphics/SVG/1.1/DTD/svg11.dtd">
<svg width="100%" height="100%" viewBox="0 0 1842 110" version="1.1" xmlns="http://www.w3.org/2000/svg" xmlns:xlink="http://www.w3.org/1999/xlink" xml:space="preserve" xmlns:serif="http://www.serif.com/" style="fill-rule:evenodd;clip-rule:evenodd;stroke-linejoin:round;stroke-miterlimit:2;">
    <g transform="matrix(1,0,0,1,-49.898539,-476.614244)">
        <g transform="matrix(0.861097,0,0,0.861097,34.875512,97.168655)">
            <g transform="matrix(0.437853,0,0,0.437853,685.399559,107.012148)">
                <g transform="matrix(295.602436,0,0,295.602436,21.120067,1024.194796)">
                    <path d="M0.193,-0.169L0.188,-0.291L0.585,-0.7L0.699,-0.7L0.392,-0.376L0.336,-0.314L0.193,-0.169ZM0.105,0L0.105,-0.7L0.204,-0.7L0.204,0L0.105,0ZM0.601,0L0.314,-0.334L0.381,-0.408L0.718,-0L0.601,-0Z" style="fill-rule:nonzero;"/>
                </g>
                <g transform="matrix(295.602436,0,0,295.602436,225.434499,1024.194796)">
                    <path d="M-0.001,-0L0.316,-0.7L0.415,-0.7L0.733,0L0.628,0L0.345,-0.644L0.385,-0.644L0.102,0L-0.001,0ZM0.134,-0.175L0.162,-0.256L0.556,-0.256L0.585,-0.175L0.134,-0.175Z" style="fill-rule:nonzero;"/>
                </g>
                <g transform="matrix(295.602436,0,0,295.602436,441.790209,1024.194796)">
                    <path d="M0.105,-0L0.105,-0.7L0.187,-0.7L0.501,-0.171L0.457,-0.171L0.767,-0.7L0.849,-0.7L0.85,0L0.754,0L0.753,-0.549L0.775,-0.549L0.5,-0.085L0.454,-0.085L0.176,-0.549L0.201,-0.549L0.201,0L0.105,0Z" style="fill-rule:nonzero;"/>
                </g>
                <g transform="matrix(295.602436,0,0,295.602436,724.136498,1024.194796)">
                    <path d="M0.105,0.001L0.105,-0.7L0.599,-0.7L0.599,-0.613L0.204,-0.613L0.204,-0.086L0.613,-0.086L0.613,0.001L0.105,0.001ZM0.196,-0.313L0.196,-0.398L0.556,-0.398L0.556,-0.313L0.196,-0.313Z" style="fill-rule:nonzero;"/>
                </g>
                <g transform="matrix(295.602436,0,0,295.602436,922.098204,1024.194796)">
                    <path d="M0.105,-0L0.105,-0.7L0.187,-0.7L0.649,-0.125L0.607,-0.125L0.607,-0.7L0.706,-0.7L0.706,0L0.624,0L0.162,-0.575L0.204,-0.575L0.204,0L0.105,0Z" style="fill-rule:nonzero;"/>
                </g>
                <g transform="matrix(295.602436,0,0,295.602436,1162.061596,1024.194796)">
                    <rect x="0.105" y="-0.7" width="0.099" height="0.7"/>
                </g>
                <g transform="matrix(295.602436,0,0,295.602436,1253.593787,1024.194796)">
                    <path d="M0.418,0.008C0.365,0.008 0.316,-0.001 0.271,-0.018C0.226,-0.036 0.187,-0.061 0.154,-0.093C0.121,-0.125 0.095,-0.163 0.076,-0.207C0.057,-0.251 0.048,-0.298 0.048,-0.35C0.048,-0.402 0.057,-0.449 0.076,-0.493C0.095,-0.537 0.121,-0.574 0.154,-0.607C0.187,-0.639 0.227,-0.664 0.272,-0.682C0.317,-0.7 0.366,-0.709 0.419,-0.709C0.473,-0.709 0.523,-0.7 0.569,-0.682C0.615,-0.664 0.654,-0.636 0.685,-0.6L0.621,-0.537C0.594,-0.565 0.564,-0.586 0.531,-0.6C0.498,-0.614 0.462,-0.62 0.424,-0.62C0.384,-0.62 0.348,-0.613 0.314,-0.6C0.281,-0.587 0.251,-0.568 0.227,-0.544C0.202,-0.52 0.183,-0.491 0.169,-0.459C0.155,-0.426 0.149,-0.39 0.149,-0.352C0.149,-0.313 0.156,-0.277 0.169,-0.245C0.183,-0.212 0.202,-0.184 0.227,-0.16C0.252,-0.136 0.281,-0.117 0.314,-0.104C0.347,-0.091 0.384,-0.084 0.424,-0.084C0.462,-0.084 0.498,-0.091 0.531,-0.104C0.564,-0.118 0.594,-0.139 0.621,-0.168L0.685,-0.105C0.653,-0.069 0.615,-0.041 0.569,-0.023C0.523,-0.004 0.473,0.005 0.419,0.005L0.418,0.008Z" style="fill-rule:nonzero;"/>
                </g>
                <g transform="matrix(295.602436,0,0,295.602436,1459.280801,1024.194796)">
                    <path d="M0.244,-0L0.244,-0.613L0.004,-0.613L0.004,-0.7L0.583,-0.7L0.583,-0.613L0.343,-0.613L0.343,0L0.244,0Z" style="fill-rule:nonzero;"/>
                </g>
                <g transform="matrix(295.602436,0,0,295.602436,1630.389515,1024.194796)">
                    <path d="M0.307,-0L-0.001,-0.7L0.107,-0.7L0.39,-0.054L0.328,-0.054L0.613,-0.7L0.713,-0.7L0.406,0L0.307,0Z" style="fill-rule:nonzero;"/>
                </g>
                <g transform="matrix(295.602436,0,0,295.602436,1836.491066,1024.194796)">
                    <path d="M0.105,-0L0.105,-0.7L0.205,-0.7L0.205,0L0.105,0ZM0.08,-0.757L0.216,-0.887L0.338,-0.887L0.17,-0.757L0.08,-0.757Z" style="fill-rule:nonzero;"/>
                </g>
            </g>
            <g transform="matrix(0.420867,0,0,0.420867,721.643148,119.954767)">
                <g transform="matrix(295.602436,0,0,295.602436,2007.415927,1024.194796)">
                    <path d="M0.309,0.008C0.256,0.008 0.205,0 0.156,-0.017C0.107,-0.033 0.069,-0.054 0.041,-0.081L0.078,-0.159C0.105,-0.136 0.139,-0.116 0.18,-0.101C0.221,-0.086 0.264,-0.078 0.309,-0.078C0.35,-0.078 0.383,-0.083 0.408,-0.092C0.433,-0.101 0.452,-0.114 0.464,-0.131C0.476,-0.147 0.482,-0.166 0.482,-0.186C0.482,-0.21 0.474,-0.229 0.459,-0.244C0.443,-0.259 0.423,-0.271 0.398,-0.28C0.373,-0.289 0.345,-0.297 0.315,-0.303C0.285,-0.31 0.255,-0.318 0.225,-0.327C0.195,-0.336 0.167,-0.348 0.142,-0.361C0.117,-0.375 0.097,-0.394 0.081,-0.417C0.066,-0.441 0.058,-0.471 0.058,-0.509C0.058,-0.545 0.068,-0.578 0.087,-0.609C0.106,-0.639 0.135,-0.664 0.175,-0.682C0.215,-0.7 0.265,-0.709 0.326,-0.709C0.367,-0.709 0.407,-0.704 0.447,-0.693C0.487,-0.682 0.522,-0.667 0.551,-0.647L0.518,-0.567C0.488,-0.587 0.456,-0.601 0.423,-0.61C0.39,-0.619 0.357,-0.623 0.326,-0.623C0.287,-0.623 0.254,-0.618 0.229,-0.608C0.204,-0.598 0.185,-0.585 0.174,-0.568C0.162,-0.551 0.156,-0.533 0.156,-0.512C0.156,-0.487 0.164,-0.468 0.179,-0.453C0.195,-0.438 0.215,-0.427 0.24,-0.418C0.265,-0.409 0.292,-0.402 0.323,-0.395C0.353,-0.388 0.383,-0.38 0.414,-0.371C0.444,-0.362 0.472,-0.351 0.497,-0.337C0.522,-0.323 0.542,-0.304 0.558,-0.281C0.573,-0.258 0.581,-0.228 0.581,-0.191C0.581,-0.156 0.571,-0.123 0.552,-0.092C0.533,-0.062 0.503,-0.037 0.462,-0.019C0.422,-0.001 0.371,0.009 0.309,0.009L0.309,0.008ZM0.276,-0.757L0.143,-0.887L0.23,-0.887L0.362,-0.778L0.282,-0.778L0.414,-0.887L0.501,-0.887L0.368,-0.757L0.276,-0.757Z" style="fill-rule:nonzero;"/>
                </g>
                <g transform="matrix(295.602436,0,0,295.602436,2188.108305,1024.194796)">
                    <path d="M0.244,-0L0.244,-0.613L0.004,-0.613L0.004,-0.7L0.583,-0.7L0.583,-0.613L0.343,-0.613L0.343,0L0.244,0Z" style="fill-rule:nonzero;"/>
                </g>
                <g transform="matrix(295.602436,0,0,295.602436,2359.217019,1024.194796)">
                    <path d="M0.274,-0L0.274,-0.268L0.297,-0.207L-0.003,-0.701L0.104,-0.701L0.357,-0.284L0.298,-0.284L0.552,-0.701L0.651,-0.701L0.351,-0.207L0.374,-0.268L0.374,-0L0.274,-0Z" style="fill-rule:nonzero;"/>
                </g>
                <g transform="matrix(295.602436,0,0,295.602436,2546.084589,1024.194796)">
                    <path d="M0.105,0.001L0.105,-0.7L0.419,-0.7C0.499,-0.7 0.561,-0.684 0.605,-0.652C0.648,-0.62 0.67,-0.575 0.67,-0.519C0.67,-0.481 0.661,-0.45 0.644,-0.423C0.627,-0.397 0.604,-0.377 0.575,-0.363C0.546,-0.349 0.516,-0.342 0.482,-0.342L0.5,-0.372C0.54,-0.372 0.575,-0.365 0.606,-0.351C0.637,-0.337 0.661,-0.316 0.679,-0.289C0.697,-0.262 0.706,-0.228 0.706,-0.188C0.706,-0.128 0.684,-0.082 0.639,-0.049C0.594,-0.016 0.528,0.001 0.439,0.001L0.105,0.001ZM0.204,-0.082L0.434,-0.082C0.49,-0.082 0.532,-0.091 0.561,-0.11C0.59,-0.128 0.605,-0.158 0.605,-0.198C0.605,-0.238 0.59,-0.268 0.561,-0.287C0.532,-0.306 0.489,-0.315 0.434,-0.315L0.195,-0.315L0.195,-0.397L0.409,-0.397C0.46,-0.397 0.499,-0.406 0.527,-0.425C0.555,-0.444 0.569,-0.471 0.569,-0.509C0.569,-0.546 0.555,-0.574 0.527,-0.593C0.499,-0.611 0.46,-0.621 0.409,-0.621L0.204,-0.621L0.204,-0.082Z" style="fill-rule:nonzero;"/>
                </g>
                <g transform="matrix(295.602436,0,0,295.602436,2769.941241,1024.194796)">
                    <path d="M0.105,-0L0.105,-0.7L0.187,-0.7L0.649,-0.125L0.607,-0.125L0.607,-0.7L0.706,-0.7L0.706,0L0.624,0L0.162,-0.575L0.204,-0.575L0.204,0L0.105,0Z" style="fill-rule:nonzero;"/>
                </g>
                <g transform="matrix(295.602436,0,0,295.602436,3009.904633,1024.194796)">
                    <path d="M0.105,0.001L0.105,-0.7L0.599,-0.7L0.599,-0.613L0.204,-0.613L0.204,-0.086L0.613,-0.086L0.613,0.001L0.105,0.001ZM0.196,-0.313L0.196,-0.398L0.556,-0.398L0.556,-0.313L0.196,-0.313Z" style="fill-rule:nonzero;"/>
                </g>
                <g transform="matrix(295.602436,0,0,295.602436,3207.866338,1024.194796)">
                    <path d="M0.105,-0L0.105,-0.7L0.378,-0.7C0.469,-0.7 0.54,-0.678 0.592,-0.635C0.644,-0.592 0.67,-0.532 0.67,-0.455C0.67,-0.405 0.658,-0.361 0.635,-0.325C0.612,-0.289 0.578,-0.261 0.535,-0.241C0.491,-0.222 0.439,-0.212 0.379,-0.212L0.161,-0.212L0.205,-0.258L0.205,0.001L0.106,0.001L0.105,-0ZM0.573,-0L0.394,-0.254L0.502,-0.254L0.682,0L0.573,0ZM0.204,-0.249L0.16,-0.298L0.375,-0.298C0.439,-0.298 0.487,-0.312 0.52,-0.34C0.553,-0.368 0.569,-0.406 0.569,-0.456C0.569,-0.506 0.553,-0.545 0.52,-0.573C0.487,-0.6 0.439,-0.614 0.375,-0.614L0.16,-0.614L0.204,-0.663L0.204,-0.249Z" style="fill-rule:nonzero;"/>
                </g>
            </g>
            <g transform="matrix(0.171849,0,0,0.171849,8.476919,453.142807)">
                <g transform="matrix(1,0,0,1,0,-1639.937217)">
                    <path d="M2852.713,2026.675L2970.632,2026.675L2911.673,1865.111L2852.713,2026.685L2852.713,2026.675ZM3039.673,1705.046L3230.512,2228.636L3044.325,2228.636L3017.173,2153.829L2806.945,2153.829L2779.018,2228.626L2593.607,2228.626L2783.666,1705.053L3039.673,1705.053L3039.673,1705.046ZM2566.867,2228.636L2386.888,2228.636L2386.888,1705.046L2566.867,1705.046L2566.867,2228.636ZM2143.838,1705.046L2323.817,1705.046L2323.817,2228.636L2143.838,2228.636L1962.31,1954.122L1962.31,2228.636L1782.331,2228.636L1782.331,1705.053L1962.31,1705.053L1962.31,1705.803L2143.838,1981.056L2143.838,1705.046ZM1441.117,2094.745C1497.748,2094.745 1562.136,2064.823 1562.136,1966.842C1562.136,1869.606 1497.748,1839.688 1441.117,1839.688C1385.261,1839.688 1320.87,1869.606 1320.87,1966.842C1320.87,2064.823 1385.261,2094.745 1441.117,2094.745M1441.117,1693.083C1586.187,1693.083 1739.004,1768.628 1739.004,1966.842C1739.004,2165.793 1586.188,2241.345 1441.117,2241.345C1296.822,2241.345 1143.992,2165.8 1143.992,1966.842C1143.992,1768.636 1296.823,1693.083 1441.117,1693.083M605.097,1705.046L1131.07,1705.046L1131.07,1852.413L958.075,1852.413L958.075,2228.636L778.096,2228.636L778.096,1852.413L605.097,1852.413L605.097,1705.046ZM382.669,1911.491C537.817,1946.646 592.897,1990.771 592.897,2077.538C592.897,2147.102 529.289,2241.345 328.369,2241.345C170.883,2241.345 90.982,2158.316 52.194,2092.501L239.15,2049.87C278.721,2088.014 324.489,2094.744 353.969,2094.744C384.997,2094.744 405.938,2083.526 405.938,2066.317C405.938,2042.393 377.238,2037.15 300.442,2022.937C218.21,2007.236 66.935,1965.347 66.935,1844.171C66.935,1756.658 146.063,1693.083 314.402,1693.083C462.576,1693.083 562.648,1779.105 579.716,1841.182L405.938,1875.588C389.656,1849.415 343.882,1839.688 305.87,1839.688C279.49,1839.688 253.122,1845.666 253.122,1862.124C253.122,1888.308 301.211,1893.54 382.67,1911.492" style="fill-rule:nonzero;"/>
                </g>
                <g transform="matrix(1,0,0,1,0,-1639.937217)">
                    <rect x="3230.511" y="1693.082" width="225.168" height="215.984" style="fill:rgb(237,98,42);"/>
                </g>
            </g>
            <g transform="matrix(0.742889,0,0,0.924809,164.218909,-167.754644)">
                <rect x="656.983" y="668.659" width="8.076" height="126.827"/>
            </g>
        </g>
    </g>
</svg>
