<svg width="64" height="64" viewBox="0 0 64 64" xmlns="http://www.w3.org/2000/svg">
  <defs>
    <linearGradient id="bg" x1="0" y1="0" x2="1" y2="1">
      <stop offset="0%" stop-color="#171513" />
      <stop offset="100%" stop-color="#0f0e0d" />
    </linearGradient>
    <linearGradient id="accent" x1="0" y1="0" x2="1" y2="1">
      <stop offset="0%" stop-color="#f37a3f" />
      <stop offset="100%" stop-color="#ed622a" />
    </linearGradient>
  </defs>

  <rect x="2" y="2" width="60" height="60" rx="16" fill="url(#bg)" />
  <path
    d="M46.5 17.5C42.7 14.3 37.9 12.6 32.5 12.6C23.4 12.6 16.9 17.2 16.9 24.2C16.9 30 21.4 33.3 29.1 35.4L35.2 37.1C39.4 38.2 41.1 39.4 41.1 41.4C41.1 44.1 38.3 45.9 33.5 45.9C29 45.9 24.6 44.3 21.2 41.4L16.4 47C20.9 51 27 53.2 33.3 53.2C43.3 53.2 49.5 48.2 49.5 40.7C49.5 34.8 46 31.8 38.6 29.7L32.4 28C27.8 26.8 25.6 25.8 25.6 23.2C25.6 20.6 28.2 19 32.3 19C35.8 19 39.2 20.2 41.8 22.4L46.5 17.5Z"
    fill="#fffdfb"
  />
  <rect x="44" y="12" width="8" height="8" rx="2" fill="url(#accent)" />
</svg>
